<!DOCTYPE svg>
<svg width="100%" height="100%" version="1.1" xmlns="http://www.w3.org/2000/svg">
  <rect width="300" height="100"
  style="fill:rgb(0,0,255);stroke-width:1;
  stroke:rgb(0,0,0)"/>

  <rect x="20" y="20" width="250" height="250"
  style="fill:blue;stroke:pink;stroke-width:5;
  fill-opacity:0.1;stroke-opacity:0.9"/>
  <path d="M300,200 h-150 a150,150 0 1,0 150,-150 z" fill="red" stroke="blue" stroke-width="5"/>
  <path d="M275,175 v-150 a150,150 0 0,0 -150,150 z" fill="yellow" stroke="blue" stroke-width="5"/>
  <path d="M600,350 l 50,-25
    a25,25 -30 0,1 50,-25 l 50,-25
    a25,50 -30 0,1 50,-25 l 50,-25
    a25,75 -30 0,1 50,-25 l 50,-25
    a25,100 -30 0,1 50,-25 l 50,-25"
    fill="none" stroke="red" stroke-width="5"/>
</svg>
